<svg width="232" height="232" viewBox="0 0 232 232" fill="none" xmlns="http://www.w3.org/2000/svg">
<g clip-path="url(#clip0_2509_102)">
<path fill-rule="evenodd" clip-rule="evenodd" d="M116 227.796C93.6975 227.796 71.8958 221.239 53.3519 208.955C34.8081 196.671 20.3549 179.211 11.8201 158.783C3.28526 138.355 1.05216 115.876 5.40317 94.1901C9.75418 72.5039 20.4939 52.5838 36.2641 36.9489C52.0344 21.314 72.127 10.6665 94.0009 6.35283C115.875 2.03917 138.548 4.2531 159.153 12.7147C179.758 21.1762 197.369 35.5053 209.76 53.89C222.15 72.2747 228.764 93.8893 228.764 116C228.736 145.642 216.847 174.062 195.705 195.022C174.564 215.981 145.898 227.769 116 227.796ZM57.9985 29.9401C75.167 18.5669 95.3517 12.4965 116 12.4965C143.682 12.5178 170.224 23.4295 189.798 42.8356C209.372 62.2418 220.379 88.556 220.4 116C220.4 136.471 214.277 156.483 202.805 173.504C191.334 190.525 175.029 203.791 155.952 211.625C136.876 219.459 115.884 221.509 95.6326 217.515C75.381 213.522 56.7787 203.664 42.1781 189.189C27.5775 174.713 17.6344 156.271 13.6061 136.193C9.57777 116.115 11.6452 95.304 19.547 76.3912C27.4488 57.4783 40.83 41.3132 57.9985 29.9401Z" fill="#0F0884"/>
<path d="M176.807 173.778C176.824 174.472 176.694 175.161 176.425 175.801C176.156 176.441 175.754 177.018 175.245 177.494C174.736 177.971 174.132 178.335 173.472 178.565C172.812 178.794 172.11 178.884 171.413 178.827H157.122C156.425 178.884 155.723 178.794 155.063 178.565C154.403 178.335 153.799 177.971 153.29 177.494C152.782 177.018 152.38 176.441 152.111 175.801C151.841 175.161 151.711 174.472 151.728 173.778V84.0752L126.336 173.778C126.162 175.179 125.475 176.467 124.406 177.398C123.336 178.329 121.959 178.838 120.536 178.827H103.832C102.413 178.823 101.043 178.309 99.9769 177.381C98.9106 176.453 98.2195 175.173 98.0316 173.778L74.588 84.0752V173.778C74.6052 174.473 74.4746 175.163 74.2047 175.804C73.9348 176.445 73.5318 177.023 73.0218 177.499C72.5118 177.975 71.9064 178.34 71.2449 178.569C70.5833 178.797 69.8806 178.886 69.1824 178.827H55.5524C54.8552 178.884 54.1537 178.794 53.4936 178.565C52.8335 178.335 52.2295 177.971 51.7208 177.494C51.2121 177.018 50.8101 176.441 50.5409 175.801C50.2718 175.161 50.1415 174.472 50.1584 173.778V53.1965C50.1589 52.5081 50.301 51.827 50.5762 51.1949C50.8513 50.5628 51.2537 49.993 51.7586 49.5204C52.2635 49.0478 52.8604 48.6823 53.5128 48.4463C54.1651 48.2103 54.8592 48.1087 55.5524 48.1478H82.2324C83.6598 48.1854 85.0314 48.7053 86.12 49.6214C87.2086 50.5375 87.9488 51.7948 88.218 53.185C98.514 84.5208 106.965 116.423 113.529 148.731C120.271 116.343 129.141 84.4261 140.082 53.185C140.351 51.7929 141.093 50.5341 142.184 49.6178C143.275 48.7015 144.649 48.1828 146.079 48.1478H171.46C172.152 48.1088 172.845 48.21 173.497 48.4453C174.148 48.6806 174.744 49.045 175.249 49.5164C175.754 49.9878 176.157 50.5562 176.432 51.1869C176.708 51.8177 176.852 52.4976 176.854 53.185L176.807 173.778Z" fill="#0F0884"/>
</g>
<defs>
<clipPath id="clip0_2509_102">
<rect width="232" height="232" fill="white"/>
</clipPath>
</defs>
</svg>
